<mxfile host="app.diagrams.net" modified="2023-06-03T02:22:46.900Z" agent="Mozilla/5.0 (Macintosh; Intel Mac OS X 10_15_7) AppleWebKit/537.36 (KHTML, like Gecko) Chrome/113.0.0.0 Safari/537.36" etag="ENzXrXtpno-Tfj1m34uv" version="21.3.7" type="device" pages="6">
  <diagram name="페이지-1" id="DrPJC5VK7k4cFHWqK14F">
    <mxGraphModel dx="1012" dy="572" grid="1" gridSize="10" guides="1" tooltips="1" connect="1" arrows="1" fold="1" page="1" pageScale="1" pageWidth="1169" pageHeight="827" math="0" shadow="0">
      <root>
        <mxCell id="0" />
        <mxCell id="1" parent="0" />
        <mxCell id="q-2FpiohPXskWqUHKV-s-8" value="" style="ellipse;whiteSpace=wrap;html=1;aspect=fixed;fontStyle=1;fillColor=#E6E6E6;" parent="1" vertex="1">
          <mxGeometry x="330" y="260" width="240" height="240" as="geometry" />
        </mxCell>
        <mxCell id="q-2FpiohPXskWqUHKV-s-9" style="edgeStyle=orthogonalEdgeStyle;rounded=0;orthogonalLoop=1;jettySize=auto;html=1;exitX=1;exitY=0.5;exitDx=0;exitDy=0;entryX=0;entryY=0.5;entryDx=0;entryDy=0;fontStyle=1" parent="1" source="q-2FpiohPXskWqUHKV-s-1" target="q-2FpiohPXskWqUHKV-s-8" edge="1">
          <mxGeometry relative="1" as="geometry" />
        </mxCell>
        <mxCell id="q-2FpiohPXskWqUHKV-s-1" value="" style="rounded=0;whiteSpace=wrap;html=1;fontStyle=1" parent="1" vertex="1">
          <mxGeometry x="210" y="360" width="60" height="40" as="geometry" />
        </mxCell>
        <mxCell id="q-2FpiohPXskWqUHKV-s-2" value="" style="ellipse;whiteSpace=wrap;html=1;aspect=fixed;fillColor=#333333;fontStyle=1" parent="1" vertex="1">
          <mxGeometry x="230" y="370" width="20" height="20" as="geometry" />
        </mxCell>
        <mxCell id="q-2FpiohPXskWqUHKV-s-4" value="23" style="rounded=0;whiteSpace=wrap;html=1;fillColor=#f5f5f5;fontColor=#333333;strokeColor=#666666;fontStyle=1" parent="1" vertex="1">
          <mxGeometry x="400" y="330" width="120" height="40" as="geometry" />
        </mxCell>
        <mxCell id="q-2FpiohPXskWqUHKV-s-5" value="94" style="rounded=0;whiteSpace=wrap;html=1;fillColor=#f5f5f5;fontColor=#333333;strokeColor=#666666;fontStyle=1" parent="1" vertex="1">
          <mxGeometry x="400" y="390" width="120" height="40" as="geometry" />
        </mxCell>
        <mxCell id="q-2FpiohPXskWqUHKV-s-6" value="x" style="text;html=1;strokeColor=none;fillColor=none;align=center;verticalAlign=middle;whiteSpace=wrap;rounded=0;fontStyle=1" parent="1" vertex="1">
          <mxGeometry x="360" y="330" width="40" height="40" as="geometry" />
        </mxCell>
        <mxCell id="q-2FpiohPXskWqUHKV-s-7" value="y" style="text;html=1;strokeColor=none;fillColor=none;align=center;verticalAlign=middle;whiteSpace=wrap;rounded=0;fontStyle=1" parent="1" vertex="1">
          <mxGeometry x="360" y="390" width="40" height="40" as="geometry" />
        </mxCell>
        <mxCell id="q-2FpiohPXskWqUHKV-s-10" value="originOne" style="text;html=1;strokeColor=none;fillColor=none;align=center;verticalAlign=middle;whiteSpace=wrap;rounded=0;fontStyle=1" parent="1" vertex="1">
          <mxGeometry x="140" y="365" width="60" height="30" as="geometry" />
        </mxCell>
        <mxCell id="q-2FpiohPXskWqUHKV-s-12" value="Point object" style="text;html=1;strokeColor=none;fillColor=none;align=center;verticalAlign=middle;whiteSpace=wrap;rounded=0;fontStyle=1" parent="1" vertex="1">
          <mxGeometry x="350" y="220" width="200" height="40" as="geometry" />
        </mxCell>
        <mxCell id="lWSCyvdp-2pZUDSuFRr--4" value="" style="rounded=0;whiteSpace=wrap;html=1;fontStyle=1" vertex="1" parent="1">
          <mxGeometry x="210" y="440" width="60" height="40" as="geometry" />
        </mxCell>
        <mxCell id="lWSCyvdp-2pZUDSuFRr--5" value="" style="ellipse;whiteSpace=wrap;html=1;aspect=fixed;fillColor=#333333;fontStyle=1" vertex="1" parent="1">
          <mxGeometry x="230" y="450" width="20" height="20" as="geometry" />
        </mxCell>
        <mxCell id="lWSCyvdp-2pZUDSuFRr--6" value="originTwo" style="text;html=1;strokeColor=none;fillColor=none;align=center;verticalAlign=middle;whiteSpace=wrap;rounded=0;fontStyle=1" vertex="1" parent="1">
          <mxGeometry x="140" y="445" width="60" height="30" as="geometry" />
        </mxCell>
        <mxCell id="lWSCyvdp-2pZUDSuFRr--11" value="" style="ellipse;whiteSpace=wrap;html=1;aspect=fixed;fontStyle=1;fillColor=#E6E6E6;" vertex="1" parent="1">
          <mxGeometry x="330" y="680" width="240" height="240" as="geometry" />
        </mxCell>
        <mxCell id="lWSCyvdp-2pZUDSuFRr--12" style="edgeStyle=orthogonalEdgeStyle;rounded=0;orthogonalLoop=1;jettySize=auto;html=1;exitX=1;exitY=0.5;exitDx=0;exitDy=0;entryX=0;entryY=0.5;entryDx=0;entryDy=0;fontStyle=1" edge="1" parent="1" source="lWSCyvdp-2pZUDSuFRr--13" target="lWSCyvdp-2pZUDSuFRr--11">
          <mxGeometry relative="1" as="geometry" />
        </mxCell>
        <mxCell id="lWSCyvdp-2pZUDSuFRr--13" value="" style="rounded=0;whiteSpace=wrap;html=1;fontStyle=1" vertex="1" parent="1">
          <mxGeometry x="210" y="780" width="60" height="40" as="geometry" />
        </mxCell>
        <mxCell id="lWSCyvdp-2pZUDSuFRr--14" value="" style="ellipse;whiteSpace=wrap;html=1;aspect=fixed;fillColor=#333333;fontStyle=1" vertex="1" parent="1">
          <mxGeometry x="230" y="790" width="20" height="20" as="geometry" />
        </mxCell>
        <mxCell id="lWSCyvdp-2pZUDSuFRr--15" value="23" style="rounded=0;whiteSpace=wrap;html=1;fillColor=#f5f5f5;fontColor=#333333;strokeColor=#666666;fontStyle=1" vertex="1" parent="1">
          <mxGeometry x="400" y="750" width="120" height="40" as="geometry" />
        </mxCell>
        <mxCell id="lWSCyvdp-2pZUDSuFRr--16" value="94" style="rounded=0;whiteSpace=wrap;html=1;fillColor=#f5f5f5;fontColor=#333333;strokeColor=#666666;fontStyle=1" vertex="1" parent="1">
          <mxGeometry x="400" y="810" width="120" height="40" as="geometry" />
        </mxCell>
        <mxCell id="lWSCyvdp-2pZUDSuFRr--17" value="x" style="text;html=1;strokeColor=none;fillColor=none;align=center;verticalAlign=middle;whiteSpace=wrap;rounded=0;fontStyle=1" vertex="1" parent="1">
          <mxGeometry x="360" y="750" width="40" height="40" as="geometry" />
        </mxCell>
        <mxCell id="lWSCyvdp-2pZUDSuFRr--18" value="y" style="text;html=1;strokeColor=none;fillColor=none;align=center;verticalAlign=middle;whiteSpace=wrap;rounded=0;fontStyle=1" vertex="1" parent="1">
          <mxGeometry x="360" y="810" width="40" height="40" as="geometry" />
        </mxCell>
        <mxCell id="lWSCyvdp-2pZUDSuFRr--19" value="originOne" style="text;html=1;strokeColor=none;fillColor=none;align=center;verticalAlign=middle;whiteSpace=wrap;rounded=0;fontStyle=1" vertex="1" parent="1">
          <mxGeometry x="140" y="785" width="60" height="30" as="geometry" />
        </mxCell>
        <mxCell id="lWSCyvdp-2pZUDSuFRr--20" value="Point object" style="text;html=1;strokeColor=none;fillColor=none;align=center;verticalAlign=middle;whiteSpace=wrap;rounded=0;fontStyle=1" vertex="1" parent="1">
          <mxGeometry x="350" y="640" width="200" height="40" as="geometry" />
        </mxCell>
        <mxCell id="lWSCyvdp-2pZUDSuFRr--25" style="edgeStyle=orthogonalEdgeStyle;rounded=0;orthogonalLoop=1;jettySize=auto;html=1;exitX=1;exitY=0.5;exitDx=0;exitDy=0;entryX=-0.008;entryY=0.567;entryDx=0;entryDy=0;entryPerimeter=0;" edge="1" parent="1" source="lWSCyvdp-2pZUDSuFRr--21" target="lWSCyvdp-2pZUDSuFRr--11">
          <mxGeometry relative="1" as="geometry" />
        </mxCell>
        <mxCell id="lWSCyvdp-2pZUDSuFRr--21" value="" style="rounded=0;whiteSpace=wrap;html=1;fontStyle=1" vertex="1" parent="1">
          <mxGeometry x="210" y="860" width="60" height="40" as="geometry" />
        </mxCell>
        <mxCell id="lWSCyvdp-2pZUDSuFRr--23" value="" style="ellipse;whiteSpace=wrap;html=1;aspect=fixed;fillColor=#333333;fontStyle=1" vertex="1" parent="1">
          <mxGeometry x="230" y="870" width="20" height="20" as="geometry" />
        </mxCell>
        <mxCell id="lWSCyvdp-2pZUDSuFRr--24" value="originTwo" style="text;html=1;strokeColor=none;fillColor=none;align=center;verticalAlign=middle;whiteSpace=wrap;rounded=0;fontStyle=1" vertex="1" parent="1">
          <mxGeometry x="140" y="865" width="60" height="30" as="geometry" />
        </mxCell>
        <mxCell id="lWSCyvdp-2pZUDSuFRr--26" value="" style="shape=flexArrow;endArrow=classic;html=1;rounded=0;endWidth=50;endSize=9;width=80;" edge="1" parent="1">
          <mxGeometry width="50" height="50" relative="1" as="geometry">
            <mxPoint x="359" y="550" as="sourcePoint" />
            <mxPoint x="359" y="630" as="targetPoint" />
            <Array as="points">
              <mxPoint x="359" y="590" />
            </Array>
          </mxGeometry>
        </mxCell>
      </root>
    </mxGraphModel>
  </diagram>
  <diagram id="riPvSZze_l_9o02yKyXL" name="페이지-2">
    <mxGraphModel dx="1012" dy="572" grid="1" gridSize="10" guides="1" tooltips="1" connect="1" arrows="1" fold="1" page="1" pageScale="1" pageWidth="1169" pageHeight="827" math="0" shadow="0">
      <root>
        <mxCell id="0" />
        <mxCell id="1" parent="0" />
        <mxCell id="Xu8lHJd8fOWo_lYSHPK7-3" value="" style="rounded=0;whiteSpace=wrap;html=1;fontStyle=1" parent="1" vertex="1">
          <mxGeometry x="340" y="60" width="60" height="40" as="geometry" />
        </mxCell>
        <mxCell id="Xu8lHJd8fOWo_lYSHPK7-1" value="" style="ellipse;whiteSpace=wrap;html=1;aspect=fixed;fontStyle=1;fillColor=#E6E6E6;" parent="1" vertex="1">
          <mxGeometry x="460" y="100" width="240" height="240" as="geometry" />
        </mxCell>
        <mxCell id="Xu8lHJd8fOWo_lYSHPK7-2" style="edgeStyle=orthogonalEdgeStyle;rounded=0;orthogonalLoop=1;jettySize=auto;html=1;exitX=1;exitY=0.5;exitDx=0;exitDy=0;entryX=0.071;entryY=0.25;entryDx=0;entryDy=0;fontStyle=1;entryPerimeter=0;" parent="1" source="Xu8lHJd8fOWo_lYSHPK7-4" target="Xu8lHJd8fOWo_lYSHPK7-1" edge="1">
          <mxGeometry relative="1" as="geometry">
            <mxPoint x="460" y="140" as="targetPoint" />
            <Array as="points">
              <mxPoint x="420" y="80" />
              <mxPoint x="420" y="160" />
            </Array>
          </mxGeometry>
        </mxCell>
        <mxCell id="Xu8lHJd8fOWo_lYSHPK7-4" value="" style="ellipse;whiteSpace=wrap;html=1;aspect=fixed;fillColor=#333333;fontStyle=1" parent="1" vertex="1">
          <mxGeometry x="360" y="70" width="20" height="20" as="geometry" />
        </mxCell>
        <mxCell id="Xu8lHJd8fOWo_lYSHPK7-5" value="23" style="rounded=0;whiteSpace=wrap;html=1;fillColor=#f5f5f5;fontColor=#333333;strokeColor=#666666;fontStyle=1" parent="1" vertex="1">
          <mxGeometry x="530" y="170" width="120" height="40" as="geometry" />
        </mxCell>
        <mxCell id="Xu8lHJd8fOWo_lYSHPK7-6" value="94" style="rounded=0;whiteSpace=wrap;html=1;fillColor=#f5f5f5;fontColor=#333333;strokeColor=#666666;fontStyle=1" parent="1" vertex="1">
          <mxGeometry x="530" y="230" width="120" height="40" as="geometry" />
        </mxCell>
        <mxCell id="Xu8lHJd8fOWo_lYSHPK7-7" value="x" style="text;html=1;strokeColor=none;fillColor=none;align=center;verticalAlign=middle;whiteSpace=wrap;rounded=0;fontStyle=1" parent="1" vertex="1">
          <mxGeometry x="490" y="170" width="40" height="40" as="geometry" />
        </mxCell>
        <mxCell id="Xu8lHJd8fOWo_lYSHPK7-8" value="y" style="text;html=1;strokeColor=none;fillColor=none;align=center;verticalAlign=middle;whiteSpace=wrap;rounded=0;fontStyle=1" parent="1" vertex="1">
          <mxGeometry x="490" y="230" width="40" height="40" as="geometry" />
        </mxCell>
        <mxCell id="Xu8lHJd8fOWo_lYSHPK7-9" value="originOne" style="text;html=1;strokeColor=none;fillColor=none;align=center;verticalAlign=middle;whiteSpace=wrap;rounded=0;fontStyle=1" parent="1" vertex="1">
          <mxGeometry x="270" y="65" width="60" height="30" as="geometry" />
        </mxCell>
        <mxCell id="Xu8lHJd8fOWo_lYSHPK7-10" value="A Point object" style="text;html=1;strokeColor=none;fillColor=none;align=center;verticalAlign=middle;whiteSpace=wrap;rounded=0;fontStyle=1" parent="1" vertex="1">
          <mxGeometry x="485" y="60" width="200" height="40" as="geometry" />
        </mxCell>
        <mxCell id="Xu8lHJd8fOWo_lYSHPK7-12" value="" style="ellipse;whiteSpace=wrap;html=1;aspect=fixed;fontStyle=1;fillColor=#E6E6E6;" parent="1" vertex="1">
          <mxGeometry x="240" y="280" width="240" height="240" as="geometry" />
        </mxCell>
        <mxCell id="Xu8lHJd8fOWo_lYSHPK7-13" value="100" style="rounded=0;whiteSpace=wrap;html=1;fillColor=#f5f5f5;fontColor=#333333;strokeColor=#666666;fontStyle=1" parent="1" vertex="1">
          <mxGeometry x="310" y="370" width="120" height="40" as="geometry" />
        </mxCell>
        <mxCell id="Xu8lHJd8fOWo_lYSHPK7-14" value="200" style="rounded=0;whiteSpace=wrap;html=1;fillColor=#f5f5f5;fontColor=#333333;strokeColor=#666666;fontStyle=1" parent="1" vertex="1">
          <mxGeometry x="310" y="430" width="120" height="40" as="geometry" />
        </mxCell>
        <mxCell id="Xu8lHJd8fOWo_lYSHPK7-15" value="width" style="text;html=1;strokeColor=none;fillColor=none;align=center;verticalAlign=middle;whiteSpace=wrap;rounded=0;fontStyle=1" parent="1" vertex="1">
          <mxGeometry x="270" y="370" width="40" height="40" as="geometry" />
        </mxCell>
        <mxCell id="Xu8lHJd8fOWo_lYSHPK7-16" value="height" style="text;html=1;strokeColor=none;fillColor=none;align=center;verticalAlign=middle;whiteSpace=wrap;rounded=0;fontStyle=1" parent="1" vertex="1">
          <mxGeometry x="270" y="430" width="40" height="40" as="geometry" />
        </mxCell>
        <mxCell id="Xu8lHJd8fOWo_lYSHPK7-22" value="" style="rounded=0;whiteSpace=wrap;html=1;fontStyle=1" parent="1" vertex="1">
          <mxGeometry x="340" y="310" width="60" height="40" as="geometry" />
        </mxCell>
        <mxCell id="c4gxi_8E2vJccLUiYfJd-2" style="edgeStyle=orthogonalEdgeStyle;rounded=0;orthogonalLoop=1;jettySize=auto;html=1;exitX=1;exitY=0.5;exitDx=0;exitDy=0;entryX=0;entryY=0.5;entryDx=0;entryDy=0;" parent="1" source="Xu8lHJd8fOWo_lYSHPK7-23" target="Xu8lHJd8fOWo_lYSHPK7-1" edge="1">
          <mxGeometry relative="1" as="geometry" />
        </mxCell>
        <mxCell id="Xu8lHJd8fOWo_lYSHPK7-23" value="" style="ellipse;whiteSpace=wrap;html=1;aspect=fixed;fillColor=#333333;fontStyle=1" parent="1" vertex="1">
          <mxGeometry x="360" y="320" width="20" height="20" as="geometry" />
        </mxCell>
        <mxCell id="Xu8lHJd8fOWo_lYSHPK7-24" value="origin" style="text;html=1;strokeColor=none;fillColor=none;align=center;verticalAlign=middle;whiteSpace=wrap;rounded=0;fontStyle=1" parent="1" vertex="1">
          <mxGeometry x="280" y="315" width="60" height="30" as="geometry" />
        </mxCell>
        <mxCell id="c4gxi_8E2vJccLUiYfJd-1" value="A Rectangle object" style="text;html=1;strokeColor=none;fillColor=none;align=center;verticalAlign=middle;whiteSpace=wrap;rounded=0;fontStyle=1" parent="1" vertex="1">
          <mxGeometry x="260" y="240" width="200" height="40" as="geometry" />
        </mxCell>
      </root>
    </mxGraphModel>
  </diagram>
  <diagram id="cAkn5kdKWbwhpwZgq3zR" name="페이지-3">
    <mxGraphModel dx="1012" dy="572" grid="1" gridSize="10" guides="1" tooltips="1" connect="1" arrows="1" fold="1" page="1" pageScale="1" pageWidth="1169" pageHeight="827" math="0" shadow="0">
      <root>
        <mxCell id="0" />
        <mxCell id="1" parent="0" />
        <mxCell id="L_DOdCqB4UYz3Qr5W9kj-64" value="" style="rounded=0;whiteSpace=wrap;html=1;fillColor=none;" parent="1" vertex="1">
          <mxGeometry x="160" y="59" width="640" height="240" as="geometry" />
        </mxCell>
        <mxCell id="L_DOdCqB4UYz3Qr5W9kj-1" value="" style="ellipse;whiteSpace=wrap;html=1;aspect=fixed;fontStyle=1;fillColor=#E6E6E6;" parent="1" vertex="1">
          <mxGeometry x="360" y="80" width="200" height="200" as="geometry" />
        </mxCell>
        <mxCell id="L_DOdCqB4UYz3Qr5W9kj-2" style="edgeStyle=orthogonalEdgeStyle;rounded=0;orthogonalLoop=1;jettySize=auto;html=1;exitX=1;exitY=0.5;exitDx=0;exitDy=0;entryX=0;entryY=0.5;entryDx=0;entryDy=0;fontStyle=1" parent="1" source="L_DOdCqB4UYz3Qr5W9kj-3" target="L_DOdCqB4UYz3Qr5W9kj-1" edge="1">
          <mxGeometry relative="1" as="geometry" />
        </mxCell>
        <mxCell id="L_DOdCqB4UYz3Qr5W9kj-3" value="" style="rounded=0;whiteSpace=wrap;html=1;fontStyle=1" parent="1" vertex="1">
          <mxGeometry x="250" y="160" width="60" height="40" as="geometry" />
        </mxCell>
        <mxCell id="L_DOdCqB4UYz3Qr5W9kj-4" value="" style="ellipse;whiteSpace=wrap;html=1;aspect=fixed;fillColor=#333333;fontStyle=1" parent="1" vertex="1">
          <mxGeometry x="270" y="170" width="20" height="20" as="geometry" />
        </mxCell>
        <mxCell id="L_DOdCqB4UYz3Qr5W9kj-5" value="10" style="rounded=0;whiteSpace=wrap;html=1;fillColor=#f5f5f5;fontColor=#333333;strokeColor=#666666;fontStyle=1" parent="1" vertex="1">
          <mxGeometry x="440" y="115" width="60" height="40" as="geometry" />
        </mxCell>
        <mxCell id="L_DOdCqB4UYz3Qr5W9kj-6" value="10" style="rounded=0;whiteSpace=wrap;html=1;fillColor=#f5f5f5;fontColor=#333333;strokeColor=#666666;fontStyle=1" parent="1" vertex="1">
          <mxGeometry x="440" y="159" width="60" height="40" as="geometry" />
        </mxCell>
        <mxCell id="L_DOdCqB4UYz3Qr5W9kj-7" value="x" style="text;html=1;strokeColor=none;fillColor=none;align=center;verticalAlign=middle;whiteSpace=wrap;rounded=0;fontStyle=1" parent="1" vertex="1">
          <mxGeometry x="400" y="115" width="40" height="40" as="geometry" />
        </mxCell>
        <mxCell id="L_DOdCqB4UYz3Qr5W9kj-8" value="y" style="text;html=1;strokeColor=none;fillColor=none;align=center;verticalAlign=middle;whiteSpace=wrap;rounded=0;fontStyle=1" parent="1" vertex="1">
          <mxGeometry x="400" y="159" width="40" height="40" as="geometry" />
        </mxCell>
        <mxCell id="L_DOdCqB4UYz3Qr5W9kj-9" value="circle" style="text;html=1;strokeColor=none;fillColor=none;align=center;verticalAlign=middle;whiteSpace=wrap;rounded=0;fontStyle=1" parent="1" vertex="1">
          <mxGeometry x="180" y="165" width="60" height="30" as="geometry" />
        </mxCell>
        <mxCell id="L_DOdCqB4UYz3Qr5W9kj-14" value="20" style="rounded=0;whiteSpace=wrap;html=1;fillColor=#f5f5f5;fontColor=#333333;strokeColor=#666666;fontStyle=1" parent="1" vertex="1">
          <mxGeometry x="440" y="205" width="60" height="40" as="geometry" />
        </mxCell>
        <mxCell id="L_DOdCqB4UYz3Qr5W9kj-15" value="radius" style="text;html=1;strokeColor=none;fillColor=none;align=center;verticalAlign=middle;whiteSpace=wrap;rounded=0;fontStyle=1" parent="1" vertex="1">
          <mxGeometry x="400" y="205" width="40" height="40" as="geometry" />
        </mxCell>
        <mxCell id="L_DOdCqB4UYz3Qr5W9kj-65" value="static void main" style="text;html=1;strokeColor=none;fillColor=none;align=center;verticalAlign=middle;whiteSpace=wrap;rounded=0;" parent="1" vertex="1">
          <mxGeometry x="160" y="59" width="120" height="30" as="geometry" />
        </mxCell>
      </root>
    </mxGraphModel>
  </diagram>
  <diagram id="Q-zkTdHGwCVaN4a6evlZ" name="페이지-4">
    <mxGraphModel dx="1012" dy="572" grid="1" gridSize="10" guides="1" tooltips="1" connect="1" arrows="1" fold="1" page="1" pageScale="1" pageWidth="1169" pageHeight="827" math="0" shadow="0">
      <root>
        <mxCell id="0" />
        <mxCell id="1" parent="0" />
        <mxCell id="KXWET14AzzbmKklA7HNN-1" value="" style="rounded=0;whiteSpace=wrap;html=1;fillColor=none;" parent="1" vertex="1">
          <mxGeometry x="160" y="339" width="640" height="240" as="geometry" />
        </mxCell>
        <mxCell id="KXWET14AzzbmKklA7HNN-2" value="" style="ellipse;whiteSpace=wrap;html=1;aspect=fixed;fontStyle=1;fillColor=#E6E6E6;" parent="1" vertex="1">
          <mxGeometry x="360" y="360" width="200" height="200" as="geometry" />
        </mxCell>
        <mxCell id="KXWET14AzzbmKklA7HNN-3" style="edgeStyle=orthogonalEdgeStyle;rounded=0;orthogonalLoop=1;jettySize=auto;html=1;exitX=1;exitY=0.5;exitDx=0;exitDy=0;entryX=0;entryY=0.5;entryDx=0;entryDy=0;fontStyle=1" parent="1" source="KXWET14AzzbmKklA7HNN-4" target="KXWET14AzzbmKklA7HNN-2" edge="1">
          <mxGeometry relative="1" as="geometry" />
        </mxCell>
        <mxCell id="KXWET14AzzbmKklA7HNN-4" value="" style="rounded=0;whiteSpace=wrap;html=1;fontStyle=1" parent="1" vertex="1">
          <mxGeometry x="250" y="440" width="60" height="40" as="geometry" />
        </mxCell>
        <mxCell id="KXWET14AzzbmKklA7HNN-5" value="" style="ellipse;whiteSpace=wrap;html=1;aspect=fixed;fillColor=#333333;fontStyle=1" parent="1" vertex="1">
          <mxGeometry x="270" y="450" width="20" height="20" as="geometry" />
        </mxCell>
        <mxCell id="KXWET14AzzbmKklA7HNN-6" value="10" style="rounded=0;whiteSpace=wrap;html=1;fillColor=#f5f5f5;fontColor=#333333;strokeColor=#666666;fontStyle=1" parent="1" vertex="1">
          <mxGeometry x="440" y="395" width="60" height="40" as="geometry" />
        </mxCell>
        <mxCell id="KXWET14AzzbmKklA7HNN-7" value="10" style="rounded=0;whiteSpace=wrap;html=1;fillColor=#f5f5f5;fontColor=#333333;strokeColor=#666666;fontStyle=1" parent="1" vertex="1">
          <mxGeometry x="440" y="439" width="60" height="40" as="geometry" />
        </mxCell>
        <mxCell id="KXWET14AzzbmKklA7HNN-8" value="x" style="text;html=1;strokeColor=none;fillColor=none;align=center;verticalAlign=middle;whiteSpace=wrap;rounded=0;fontStyle=1" parent="1" vertex="1">
          <mxGeometry x="400" y="395" width="40" height="40" as="geometry" />
        </mxCell>
        <mxCell id="KXWET14AzzbmKklA7HNN-9" value="y" style="text;html=1;strokeColor=none;fillColor=none;align=center;verticalAlign=middle;whiteSpace=wrap;rounded=0;fontStyle=1" parent="1" vertex="1">
          <mxGeometry x="400" y="439" width="40" height="40" as="geometry" />
        </mxCell>
        <mxCell id="KXWET14AzzbmKklA7HNN-10" value="circle" style="text;html=1;strokeColor=none;fillColor=none;align=center;verticalAlign=middle;whiteSpace=wrap;rounded=0;fontStyle=1" parent="1" vertex="1">
          <mxGeometry x="180" y="445" width="60" height="30" as="geometry" />
        </mxCell>
        <mxCell id="KXWET14AzzbmKklA7HNN-11" style="edgeStyle=orthogonalEdgeStyle;rounded=0;orthogonalLoop=1;jettySize=auto;html=1;exitX=1;exitY=0.5;exitDx=0;exitDy=0;entryX=-0.005;entryY=0.59;entryDx=0;entryDy=0;entryPerimeter=0;" parent="1" source="KXWET14AzzbmKklA7HNN-12" target="KXWET14AzzbmKklA7HNN-2" edge="1">
          <mxGeometry relative="1" as="geometry" />
        </mxCell>
        <mxCell id="KXWET14AzzbmKklA7HNN-12" value="" style="rounded=0;whiteSpace=wrap;html=1;fontStyle=1" parent="1" vertex="1">
          <mxGeometry x="250" y="520" width="60" height="40" as="geometry" />
        </mxCell>
        <mxCell id="KXWET14AzzbmKklA7HNN-13" value="" style="ellipse;whiteSpace=wrap;html=1;aspect=fixed;fillColor=#333333;fontStyle=1" parent="1" vertex="1">
          <mxGeometry x="270" y="530" width="20" height="20" as="geometry" />
        </mxCell>
        <mxCell id="KXWET14AzzbmKklA7HNN-14" value="c" style="text;html=1;strokeColor=none;fillColor=none;align=center;verticalAlign=middle;whiteSpace=wrap;rounded=0;fontStyle=1" parent="1" vertex="1">
          <mxGeometry x="180" y="525" width="60" height="30" as="geometry" />
        </mxCell>
        <mxCell id="KXWET14AzzbmKklA7HNN-15" value="20" style="rounded=0;whiteSpace=wrap;html=1;fillColor=#f5f5f5;fontColor=#333333;strokeColor=#666666;fontStyle=1" parent="1" vertex="1">
          <mxGeometry x="440" y="485" width="60" height="40" as="geometry" />
        </mxCell>
        <mxCell id="KXWET14AzzbmKklA7HNN-16" value="radius" style="text;html=1;strokeColor=none;fillColor=none;align=center;verticalAlign=middle;whiteSpace=wrap;rounded=0;fontStyle=1" parent="1" vertex="1">
          <mxGeometry x="400" y="485" width="40" height="40" as="geometry" />
        </mxCell>
        <mxCell id="KXWET14AzzbmKklA7HNN-41" value="static void move" style="text;html=1;strokeColor=none;fillColor=none;align=center;verticalAlign=middle;whiteSpace=wrap;rounded=0;" parent="1" vertex="1">
          <mxGeometry x="160" y="339" width="120" height="30" as="geometry" />
        </mxCell>
      </root>
    </mxGraphModel>
  </diagram>
  <diagram id="cZ5_Wk2c7Yc42KIZTNDV" name="페이지-5">
    <mxGraphModel dx="1006" dy="1016" grid="1" gridSize="10" guides="1" tooltips="1" connect="1" arrows="1" fold="1" page="1" pageScale="1" pageWidth="1169" pageHeight="827" math="0" shadow="0">
      <root>
        <mxCell id="0" />
        <mxCell id="1" parent="0" />
        <mxCell id="q5zU9W0Ta6BM8-VgfWoJ-1" value="" style="rounded=0;whiteSpace=wrap;html=1;fillColor=none;" vertex="1" parent="1">
          <mxGeometry x="160" y="620" width="640" height="240" as="geometry" />
        </mxCell>
        <mxCell id="q5zU9W0Ta6BM8-VgfWoJ-2" value="" style="ellipse;whiteSpace=wrap;html=1;aspect=fixed;fontStyle=1;fillColor=#E6E6E6;" vertex="1" parent="1">
          <mxGeometry x="360" y="640" width="200" height="200" as="geometry" />
        </mxCell>
        <mxCell id="q5zU9W0Ta6BM8-VgfWoJ-3" style="edgeStyle=orthogonalEdgeStyle;rounded=0;orthogonalLoop=1;jettySize=auto;html=1;exitX=1;exitY=0.5;exitDx=0;exitDy=0;entryX=0;entryY=0.5;entryDx=0;entryDy=0;fontStyle=1" edge="1" parent="1" source="q5zU9W0Ta6BM8-VgfWoJ-4" target="q5zU9W0Ta6BM8-VgfWoJ-2">
          <mxGeometry relative="1" as="geometry" />
        </mxCell>
        <mxCell id="q5zU9W0Ta6BM8-VgfWoJ-4" value="" style="rounded=0;whiteSpace=wrap;html=1;fontStyle=1" vertex="1" parent="1">
          <mxGeometry x="250" y="720" width="60" height="40" as="geometry" />
        </mxCell>
        <mxCell id="q5zU9W0Ta6BM8-VgfWoJ-5" value="" style="ellipse;whiteSpace=wrap;html=1;aspect=fixed;fillColor=#333333;fontStyle=1" vertex="1" parent="1">
          <mxGeometry x="270" y="730" width="20" height="20" as="geometry" />
        </mxCell>
        <mxCell id="q5zU9W0Ta6BM8-VgfWoJ-6" value="10" style="rounded=0;whiteSpace=wrap;html=1;fillColor=#f5f5f5;fontColor=#333333;strokeColor=#666666;fontStyle=1" vertex="1" parent="1">
          <mxGeometry x="440" y="675" width="60" height="40" as="geometry" />
        </mxCell>
        <mxCell id="q5zU9W0Ta6BM8-VgfWoJ-7" value="10" style="rounded=0;whiteSpace=wrap;html=1;fillColor=#f5f5f5;fontColor=#333333;strokeColor=#666666;fontStyle=1" vertex="1" parent="1">
          <mxGeometry x="440" y="719" width="60" height="40" as="geometry" />
        </mxCell>
        <mxCell id="q5zU9W0Ta6BM8-VgfWoJ-8" value="x" style="text;html=1;strokeColor=none;fillColor=none;align=center;verticalAlign=middle;whiteSpace=wrap;rounded=0;fontStyle=1" vertex="1" parent="1">
          <mxGeometry x="400" y="675" width="40" height="40" as="geometry" />
        </mxCell>
        <mxCell id="q5zU9W0Ta6BM8-VgfWoJ-9" value="y" style="text;html=1;strokeColor=none;fillColor=none;align=center;verticalAlign=middle;whiteSpace=wrap;rounded=0;fontStyle=1" vertex="1" parent="1">
          <mxGeometry x="400" y="719" width="40" height="40" as="geometry" />
        </mxCell>
        <mxCell id="q5zU9W0Ta6BM8-VgfWoJ-10" value="circle" style="text;html=1;strokeColor=none;fillColor=none;align=center;verticalAlign=middle;whiteSpace=wrap;rounded=0;fontStyle=1" vertex="1" parent="1">
          <mxGeometry x="180" y="725" width="60" height="30" as="geometry" />
        </mxCell>
        <mxCell id="q5zU9W0Ta6BM8-VgfWoJ-11" style="edgeStyle=orthogonalEdgeStyle;rounded=0;orthogonalLoop=1;jettySize=auto;html=1;exitX=1;exitY=0.5;exitDx=0;exitDy=0;entryX=-0.005;entryY=0.59;entryDx=0;entryDy=0;entryPerimeter=0;" edge="1" parent="1" source="q5zU9W0Ta6BM8-VgfWoJ-12" target="q5zU9W0Ta6BM8-VgfWoJ-2">
          <mxGeometry relative="1" as="geometry" />
        </mxCell>
        <mxCell id="q5zU9W0Ta6BM8-VgfWoJ-12" value="" style="rounded=0;whiteSpace=wrap;html=1;fontStyle=1" vertex="1" parent="1">
          <mxGeometry x="250" y="800" width="60" height="40" as="geometry" />
        </mxCell>
        <mxCell id="q5zU9W0Ta6BM8-VgfWoJ-13" value="" style="ellipse;whiteSpace=wrap;html=1;aspect=fixed;fillColor=#333333;fontStyle=1" vertex="1" parent="1">
          <mxGeometry x="270" y="810" width="20" height="20" as="geometry" />
        </mxCell>
        <mxCell id="q5zU9W0Ta6BM8-VgfWoJ-14" value="c" style="text;html=1;strokeColor=none;fillColor=none;align=center;verticalAlign=middle;whiteSpace=wrap;rounded=0;fontStyle=1" vertex="1" parent="1">
          <mxGeometry x="180" y="805" width="60" height="30" as="geometry" />
        </mxCell>
        <mxCell id="q5zU9W0Ta6BM8-VgfWoJ-15" value="20" style="rounded=0;whiteSpace=wrap;html=1;fillColor=#f5f5f5;fontColor=#333333;strokeColor=#666666;fontStyle=1" vertex="1" parent="1">
          <mxGeometry x="440" y="765" width="60" height="40" as="geometry" />
        </mxCell>
        <mxCell id="q5zU9W0Ta6BM8-VgfWoJ-16" value="radius" style="text;html=1;strokeColor=none;fillColor=none;align=center;verticalAlign=middle;whiteSpace=wrap;rounded=0;fontStyle=1" vertex="1" parent="1">
          <mxGeometry x="400" y="765" width="40" height="40" as="geometry" />
        </mxCell>
        <mxCell id="q5zU9W0Ta6BM8-VgfWoJ-17" style="edgeStyle=orthogonalEdgeStyle;rounded=0;orthogonalLoop=1;jettySize=auto;html=1;exitX=0;exitY=0.5;exitDx=0;exitDy=0;entryX=1;entryY=0.5;entryDx=0;entryDy=0;" edge="1" parent="1" source="q5zU9W0Ta6BM8-VgfWoJ-18" target="q5zU9W0Ta6BM8-VgfWoJ-6">
          <mxGeometry relative="1" as="geometry" />
        </mxCell>
        <mxCell id="q5zU9W0Ta6BM8-VgfWoJ-18" value="" style="rounded=0;whiteSpace=wrap;html=1;fontStyle=1" vertex="1" parent="1">
          <mxGeometry x="640" y="660" width="60" height="40" as="geometry" />
        </mxCell>
        <mxCell id="q5zU9W0Ta6BM8-VgfWoJ-19" value="" style="ellipse;whiteSpace=wrap;html=1;aspect=fixed;fillColor=#333333;fontStyle=1" vertex="1" parent="1">
          <mxGeometry x="660" y="670" width="20" height="20" as="geometry" />
        </mxCell>
        <mxCell id="q5zU9W0Ta6BM8-VgfWoJ-20" value="this.x" style="text;html=1;strokeColor=none;fillColor=none;align=center;verticalAlign=middle;whiteSpace=wrap;rounded=0;fontStyle=1" vertex="1" parent="1">
          <mxGeometry x="710" y="665" width="60" height="30" as="geometry" />
        </mxCell>
        <mxCell id="q5zU9W0Ta6BM8-VgfWoJ-21" style="edgeStyle=orthogonalEdgeStyle;rounded=0;orthogonalLoop=1;jettySize=auto;html=1;exitX=0;exitY=0.5;exitDx=0;exitDy=0;" edge="1" parent="1" source="q5zU9W0Ta6BM8-VgfWoJ-22" target="q5zU9W0Ta6BM8-VgfWoJ-7">
          <mxGeometry relative="1" as="geometry" />
        </mxCell>
        <mxCell id="q5zU9W0Ta6BM8-VgfWoJ-22" value="" style="rounded=0;whiteSpace=wrap;html=1;fontStyle=1" vertex="1" parent="1">
          <mxGeometry x="640" y="710" width="60" height="40" as="geometry" />
        </mxCell>
        <mxCell id="q5zU9W0Ta6BM8-VgfWoJ-23" value="" style="ellipse;whiteSpace=wrap;html=1;aspect=fixed;fillColor=#333333;fontStyle=1" vertex="1" parent="1">
          <mxGeometry x="660" y="720" width="20" height="20" as="geometry" />
        </mxCell>
        <mxCell id="q5zU9W0Ta6BM8-VgfWoJ-24" value="this.y" style="text;html=1;strokeColor=none;fillColor=none;align=center;verticalAlign=middle;whiteSpace=wrap;rounded=0;fontStyle=1" vertex="1" parent="1">
          <mxGeometry x="710" y="715" width="60" height="30" as="geometry" />
        </mxCell>
        <mxCell id="q5zU9W0Ta6BM8-VgfWoJ-25" value="Circle.move" style="text;html=1;strokeColor=none;fillColor=none;align=center;verticalAlign=middle;whiteSpace=wrap;rounded=0;" vertex="1" parent="1">
          <mxGeometry x="160" y="620" width="120" height="30" as="geometry" />
        </mxCell>
      </root>
    </mxGraphModel>
  </diagram>
  <diagram id="AYrIURFVGBeTnITpIktB" name="페이지-6">
    <mxGraphModel dx="1012" dy="572" grid="1" gridSize="10" guides="1" tooltips="1" connect="1" arrows="1" fold="1" page="1" pageScale="1" pageWidth="1169" pageHeight="827" math="0" shadow="0">
      <root>
        <mxCell id="0" />
        <mxCell id="1" parent="0" />
        <mxCell id="TL6wpYAUoHo6FKdefGrb-2" value="" style="ellipse;whiteSpace=wrap;html=1;aspect=fixed;fontStyle=1;fillColor=#E6E6E6;" vertex="1" parent="1">
          <mxGeometry x="440" y="80" width="200" height="200" as="geometry" />
        </mxCell>
        <mxCell id="TL6wpYAUoHo6FKdefGrb-5" value="23" style="rounded=0;whiteSpace=wrap;html=1;fillColor=#f5f5f5;fontColor=#333333;strokeColor=#666666;fontStyle=1" vertex="1" parent="1">
          <mxGeometry x="520" y="135" width="50" height="40" as="geometry" />
        </mxCell>
        <mxCell id="TL6wpYAUoHo6FKdefGrb-6" value="94" style="rounded=0;whiteSpace=wrap;html=1;fillColor=#f5f5f5;fontColor=#333333;strokeColor=#666666;fontStyle=1" vertex="1" parent="1">
          <mxGeometry x="520" y="185" width="50" height="40" as="geometry" />
        </mxCell>
        <mxCell id="TL6wpYAUoHo6FKdefGrb-7" value="x" style="text;html=1;strokeColor=none;fillColor=none;align=center;verticalAlign=middle;whiteSpace=wrap;rounded=0;fontStyle=1" vertex="1" parent="1">
          <mxGeometry x="480" y="135" width="40" height="40" as="geometry" />
        </mxCell>
        <mxCell id="TL6wpYAUoHo6FKdefGrb-8" value="y" style="text;html=1;strokeColor=none;fillColor=none;align=center;verticalAlign=middle;whiteSpace=wrap;rounded=0;fontStyle=1" vertex="1" parent="1">
          <mxGeometry x="480" y="185" width="40" height="40" as="geometry" />
        </mxCell>
        <mxCell id="TL6wpYAUoHo6FKdefGrb-10" value="A Point object" style="text;html=1;strokeColor=none;fillColor=none;align=center;verticalAlign=middle;whiteSpace=wrap;rounded=0;fontStyle=1" vertex="1" parent="1">
          <mxGeometry x="440" y="40" width="160" height="40" as="geometry" />
        </mxCell>
        <mxCell id="TL6wpYAUoHo6FKdefGrb-11" value="" style="ellipse;whiteSpace=wrap;html=1;aspect=fixed;fontStyle=1;fillColor=#E6E6E6;" vertex="1" parent="1">
          <mxGeometry x="150" y="80" width="200" height="200" as="geometry" />
        </mxCell>
        <mxCell id="TL6wpYAUoHo6FKdefGrb-12" value="100" style="rounded=0;whiteSpace=wrap;html=1;fillColor=#f5f5f5;fontColor=#333333;strokeColor=#666666;fontStyle=1" vertex="1" parent="1">
          <mxGeometry x="220" y="160" width="60" height="40" as="geometry" />
        </mxCell>
        <mxCell id="TL6wpYAUoHo6FKdefGrb-13" value="200" style="rounded=0;whiteSpace=wrap;html=1;fillColor=#f5f5f5;fontColor=#333333;strokeColor=#666666;fontStyle=1" vertex="1" parent="1">
          <mxGeometry x="220" y="210" width="60" height="40" as="geometry" />
        </mxCell>
        <mxCell id="TL6wpYAUoHo6FKdefGrb-14" value="width" style="text;html=1;strokeColor=none;fillColor=none;align=center;verticalAlign=middle;whiteSpace=wrap;rounded=0;fontStyle=1" vertex="1" parent="1">
          <mxGeometry x="170" y="160" width="40" height="40" as="geometry" />
        </mxCell>
        <mxCell id="TL6wpYAUoHo6FKdefGrb-15" value="height" style="text;html=1;strokeColor=none;fillColor=none;align=center;verticalAlign=middle;whiteSpace=wrap;rounded=0;fontStyle=1" vertex="1" parent="1">
          <mxGeometry x="170" y="210" width="40" height="40" as="geometry" />
        </mxCell>
        <mxCell id="TL6wpYAUoHo6FKdefGrb-16" value="" style="rounded=0;whiteSpace=wrap;html=1;fontStyle=1" vertex="1" parent="1">
          <mxGeometry x="220" y="110" width="60" height="40" as="geometry" />
        </mxCell>
        <mxCell id="TL6wpYAUoHo6FKdefGrb-17" style="edgeStyle=orthogonalEdgeStyle;rounded=0;orthogonalLoop=1;jettySize=auto;html=1;exitX=1;exitY=0.5;exitDx=0;exitDy=0;entryX=0;entryY=0.5;entryDx=0;entryDy=0;" edge="1" parent="1" source="TL6wpYAUoHo6FKdefGrb-18" target="TL6wpYAUoHo6FKdefGrb-2">
          <mxGeometry relative="1" as="geometry">
            <mxPoint x="335" y="20" as="targetPoint" />
            <Array as="points">
              <mxPoint x="400" y="130" />
              <mxPoint x="400" y="180" />
            </Array>
          </mxGeometry>
        </mxCell>
        <mxCell id="TL6wpYAUoHo6FKdefGrb-18" value="" style="ellipse;whiteSpace=wrap;html=1;aspect=fixed;fillColor=#333333;fontStyle=1" vertex="1" parent="1">
          <mxGeometry x="240" y="120" width="20" height="20" as="geometry" />
        </mxCell>
        <mxCell id="TL6wpYAUoHo6FKdefGrb-19" value="origin" style="text;html=1;strokeColor=none;fillColor=none;align=center;verticalAlign=middle;whiteSpace=wrap;rounded=0;fontStyle=1" vertex="1" parent="1">
          <mxGeometry x="160" y="115" width="60" height="30" as="geometry" />
        </mxCell>
        <mxCell id="TL6wpYAUoHo6FKdefGrb-20" value="A Rectangle object" style="text;html=1;strokeColor=none;fillColor=none;align=center;verticalAlign=middle;whiteSpace=wrap;rounded=0;fontStyle=1" vertex="1" parent="1">
          <mxGeometry x="140" y="40" width="200" height="40" as="geometry" />
        </mxCell>
      </root>
    </mxGraphModel>
  </diagram>
</mxfile>
